solid OpenSCAD_Model
  facet normal 0.998027 0.0627905 -0
    outer loop
      vertex 3 0 -50
      vertex 2.97634 0.376 50
      vertex 3 0 50
    endloop
  endfacet
  facet normal 0.998027 0.0627905 0
    outer loop
      vertex 3 0 -50
      vertex 2.97634 0.376 -50
      vertex 2.97634 0.376 50
    endloop
  endfacet
  facet normal 0.982287 0.187381 -0
    outer loop
      vertex 2.97634 0.376 -50
      vertex 2.90575 0.74607 50
      vertex 2.97634 0.376 50
    endloop
  endfacet
  facet normal 0.982287 0.187381 0
    outer loop
      vertex 2.97634 0.376 -50
      vertex 2.90575 0.74607 -50
      vertex 2.90575 0.74607 50
    endloop
  endfacet
  facet normal 0.951057 0.309017 -0
    outer loop
      vertex 2.90575 0.74607 -50
      vertex 2.78933 1.10437 50
      vertex 2.90575 0.74607 50
    endloop
  endfacet
  facet normal 0.951057 0.309017 0
    outer loop
      vertex 2.90575 0.74607 -50
      vertex 2.78933 1.10437 -50
      vertex 2.78933 1.10437 50
    endloop
  endfacet
  facet normal 0.904827 0.425779 -0
    outer loop
      vertex 2.78933 1.10437 -50
      vertex 2.62892 1.44526 50
      vertex 2.78933 1.10437 50
    endloop
  endfacet
  facet normal 0.904827 0.425779 0
    outer loop
      vertex 2.78933 1.10437 -50
      vertex 2.62892 1.44526 -50
      vertex 2.62892 1.44526 50
    endloop
  endfacet
  facet normal 0.844328 0.535827 -0
    outer loop
      vertex 2.62892 1.44526 -50
      vertex 2.42705 1.76336 50
      vertex 2.62892 1.44526 50
    endloop
  endfacet
  facet normal 0.844328 0.535827 0
    outer loop
      vertex 2.62892 1.44526 -50
      vertex 2.42705 1.76336 -50
      vertex 2.42705 1.76336 50
    endloop
  endfacet
  facet normal 0.770513 0.637424 -0
    outer loop
      vertex 2.42705 1.76336 -50
      vertex 2.18691 2.05364 50
      vertex 2.42705 1.76336 50
    endloop
  endfacet
  facet normal 0.770513 0.637424 0
    outer loop
      vertex 2.42705 1.76336 -50
      vertex 2.18691 2.05364 -50
      vertex 2.18691 2.05364 50
    endloop
  endfacet
  facet normal 0.684547 0.728969 -0
    outer loop
      vertex 2.18691 2.05364 -50
      vertex 1.91227 2.31154 50
      vertex 2.18691 2.05364 50
    endloop
  endfacet
  facet normal 0.684547 0.728969 0
    outer loop
      vertex 2.18691 2.05364 -50
      vertex 1.91227 2.31154 -50
      vertex 1.91227 2.31154 50
    endloop
  endfacet
  facet normal 0.587785 0.809017 -0
    outer loop
      vertex 1.91227 2.31154 -50
      vertex 1.60748 2.53298 50
      vertex 1.91227 2.31154 50
    endloop
  endfacet
  facet normal 0.587785 0.809017 0
    outer loop
      vertex 1.91227 2.31154 -50
      vertex 1.60748 2.53298 -50
      vertex 1.60748 2.53298 50
    endloop
  endfacet
  facet normal 0.481754 0.876307 -0
    outer loop
      vertex 1.60748 2.53298 -50
      vertex 1.27734 2.71448 50
      vertex 1.60748 2.53298 50
    endloop
  endfacet
  facet normal 0.481754 0.876307 0
    outer loop
      vertex 1.60748 2.53298 -50
      vertex 1.27734 2.71448 -50
      vertex 1.27734 2.71448 50
    endloop
  endfacet
  facet normal 0.368125 0.929776 -0
    outer loop
      vertex 1.27734 2.71448 -50
      vertex 0.927051 2.85317 50
      vertex 1.27734 2.71448 50
    endloop
  endfacet
  facet normal 0.368125 0.929776 0
    outer loop
      vertex 1.27734 2.71448 -50
      vertex 0.927051 2.85317 -50
      vertex 0.927051 2.85317 50
    endloop
  endfacet
  facet normal 0.24869 0.968583 -0
    outer loop
      vertex 0.927051 2.85317 -50
      vertex 0.562144 2.94686 50
      vertex 0.927051 2.85317 50
    endloop
  endfacet
  facet normal 0.24869 0.968583 0
    outer loop
      vertex 0.927051 2.85317 -50
      vertex 0.562144 2.94686 -50
      vertex 0.562144 2.94686 50
    endloop
  endfacet
  facet normal 0.125333 0.992115 -0
    outer loop
      vertex 0.562144 2.94686 -50
      vertex 0.188372 2.99408 50
      vertex 0.562144 2.94686 50
    endloop
  endfacet
  facet normal 0.125333 0.992115 0
    outer loop
      vertex 0.562144 2.94686 -50
      vertex 0.188372 2.99408 -50
      vertex 0.188372 2.99408 50
    endloop
  endfacet
  facet normal 0 1 -0
    outer loop
      vertex 0.188372 2.99408 -50
      vertex -0.188372 2.99408 50
      vertex 0.188372 2.99408 50
    endloop
  endfacet
  facet normal 0 1 0
    outer loop
      vertex 0.188372 2.99408 -50
      vertex -0.188372 2.99408 -50
      vertex -0.188372 2.99408 50
    endloop
  endfacet
  facet normal -0.125333 0.992115 0
    outer loop
      vertex -0.188372 2.99408 -50
      vertex -0.562144 2.94686 50
      vertex -0.188372 2.99408 50
    endloop
  endfacet
  facet normal -0.125333 0.992115 0
    outer loop
      vertex -0.188372 2.99408 -50
      vertex -0.562144 2.94686 -50
      vertex -0.562144 2.94686 50
    endloop
  endfacet
  facet normal -0.24869 0.968583 0
    outer loop
      vertex -0.562144 2.94686 -50
      vertex -0.927051 2.85317 50
      vertex -0.562144 2.94686 50
    endloop
  endfacet
  facet normal -0.24869 0.968583 0
    outer loop
      vertex -0.562144 2.94686 -50
      vertex -0.927051 2.85317 -50
      vertex -0.927051 2.85317 50
    endloop
  endfacet
  facet normal -0.368125 0.929776 0
    outer loop
      vertex -0.927051 2.85317 -50
      vertex -1.27734 2.71448 50
      vertex -0.927051 2.85317 50
    endloop
  endfacet
  facet normal -0.368125 0.929776 0
    outer loop
      vertex -0.927051 2.85317 -50
      vertex -1.27734 2.71448 -50
      vertex -1.27734 2.71448 50
    endloop
  endfacet
  facet normal -0.481754 0.876307 0
    outer loop
      vertex -1.27734 2.71448 -50
      vertex -1.60748 2.53298 50
      vertex -1.27734 2.71448 50
    endloop
  endfacet
  facet normal -0.481754 0.876307 0
    outer loop
      vertex -1.27734 2.71448 -50
      vertex -1.60748 2.53298 -50
      vertex -1.60748 2.53298 50
    endloop
  endfacet
  facet normal -0.587785 0.809017 0
    outer loop
      vertex -1.60748 2.53298 -50
      vertex -1.91227 2.31154 50
      vertex -1.60748 2.53298 50
    endloop
  endfacet
  facet normal -0.587785 0.809017 0
    outer loop
      vertex -1.60748 2.53298 -50
      vertex -1.91227 2.31154 -50
      vertex -1.91227 2.31154 50
    endloop
  endfacet
  facet normal -0.684547 0.728969 0
    outer loop
      vertex -1.91227 2.31154 -50
      vertex -2.18691 2.05364 50
      vertex -1.91227 2.31154 50
    endloop
  endfacet
  facet normal -0.684547 0.728969 0
    outer loop
      vertex -1.91227 2.31154 -50
      vertex -2.18691 2.05364 -50
      vertex -2.18691 2.05364 50
    endloop
  endfacet
  facet normal -0.770513 0.637424 0
    outer loop
      vertex -2.18691 2.05364 -50
      vertex -2.42705 1.76336 50
      vertex -2.18691 2.05364 50
    endloop
  endfacet
  facet normal -0.770513 0.637424 0
    outer loop
      vertex -2.18691 2.05364 -50
      vertex -2.42705 1.76336 -50
      vertex -2.42705 1.76336 50
    endloop
  endfacet
  facet normal -0.844328 0.535827 0
    outer loop
      vertex -2.42705 1.76336 -50
      vertex -2.62892 1.44526 50
      vertex -2.42705 1.76336 50
    endloop
  endfacet
  facet normal -0.844328 0.535827 0
    outer loop
      vertex -2.42705 1.76336 -50
      vertex -2.62892 1.44526 -50
      vertex -2.62892 1.44526 50
    endloop
  endfacet
  facet normal -0.904827 0.425779 0
    outer loop
      vertex -2.62892 1.44526 -50
      vertex -2.78933 1.10437 50
      vertex -2.62892 1.44526 50
    endloop
  endfacet
  facet normal -0.904827 0.425779 0
    outer loop
      vertex -2.62892 1.44526 -50
      vertex -2.78933 1.10437 -50
      vertex -2.78933 1.10437 50
    endloop
  endfacet
  facet normal -0.951057 0.309017 0
    outer loop
      vertex -2.78933 1.10437 -50
      vertex -2.90575 0.74607 50
      vertex -2.78933 1.10437 50
    endloop
  endfacet
  facet normal -0.951057 0.309017 0
    outer loop
      vertex -2.78933 1.10437 -50
      vertex -2.90575 0.74607 -50
      vertex -2.90575 0.74607 50
    endloop
  endfacet
  facet normal -0.982287 0.187381 0
    outer loop
      vertex -2.90575 0.74607 -50
      vertex -2.97634 0.376 50
      vertex -2.90575 0.74607 50
    endloop
  endfacet
  facet normal -0.982287 0.187381 0
    outer loop
      vertex -2.90575 0.74607 -50
      vertex -2.97634 0.376 -50
      vertex -2.97634 0.376 50
    endloop
  endfacet
  facet normal -0.998027 0.0627905 0
    outer loop
      vertex -2.97634 0.376 -50
      vertex -3 3.67394e-16 50
      vertex -2.97634 0.376 50
    endloop
  endfacet
  facet normal -0.998027 0.0627905 0
    outer loop
      vertex -2.97634 0.376 -50
      vertex -3 3.67394e-16 -50
      vertex -3 3.67394e-16 50
    endloop
  endfacet
  facet normal -0.998027 -0.0627905 0
    outer loop
      vertex -2.97634 -0.376 -50
      vertex -2.97634 -0.376 50
      vertex -3 3.67394e-16 50
    endloop
  endfacet
  facet normal -0.998027 -0.0627905 0
    outer loop
      vertex -3 3.67394e-16 -50
      vertex -2.97634 -0.376 -50
      vertex -3 3.67394e-16 50
    endloop
  endfacet
  facet normal -0.982287 -0.187381 0
    outer loop
      vertex -2.90575 -0.74607 -50
      vertex -2.90575 -0.74607 50
      vertex -2.97634 -0.376 50
    endloop
  endfacet
  facet normal -0.982287 -0.187381 0
    outer loop
      vertex -2.97634 -0.376 -50
      vertex -2.90575 -0.74607 -50
      vertex -2.97634 -0.376 50
    endloop
  endfacet
  facet normal -0.951057 -0.309017 0
    outer loop
      vertex -2.78933 -1.10437 -50
      vertex -2.78933 -1.10437 50
      vertex -2.90575 -0.74607 50
    endloop
  endfacet
  facet normal -0.951057 -0.309017 0
    outer loop
      vertex -2.90575 -0.74607 -50
      vertex -2.78933 -1.10437 -50
      vertex -2.90575 -0.74607 50
    endloop
  endfacet
  facet normal -0.904827 -0.425779 0
    outer loop
      vertex -2.62892 -1.44526 -50
      vertex -2.62892 -1.44526 50
      vertex -2.78933 -1.10437 50
    endloop
  endfacet
  facet normal -0.904827 -0.425779 0
    outer loop
      vertex -2.78933 -1.10437 -50
      vertex -2.62892 -1.44526 -50
      vertex -2.78933 -1.10437 50
    endloop
  endfacet
  facet normal -0.844328 -0.535827 0
    outer loop
      vertex -2.42705 -1.76336 -50
      vertex -2.42705 -1.76336 50
      vertex -2.62892 -1.44526 50
    endloop
  endfacet
  facet normal -0.844328 -0.535827 0
    outer loop
      vertex -2.62892 -1.44526 -50
      vertex -2.42705 -1.76336 -50
      vertex -2.62892 -1.44526 50
    endloop
  endfacet
  facet normal -0.770513 -0.637424 0
    outer loop
      vertex -2.18691 -2.05364 -50
      vertex -2.18691 -2.05364 50
      vertex -2.42705 -1.76336 50
    endloop
  endfacet
  facet normal -0.770513 -0.637424 0
    outer loop
      vertex -2.42705 -1.76336 -50
      vertex -2.18691 -2.05364 -50
      vertex -2.42705 -1.76336 50
    endloop
  endfacet
  facet normal -0.684547 -0.728969 0
    outer loop
      vertex -1.91227 -2.31154 -50
      vertex -1.91227 -2.31154 50
      vertex -2.18691 -2.05364 50
    endloop
  endfacet
  facet normal -0.684547 -0.728969 0
    outer loop
      vertex -2.18691 -2.05364 -50
      vertex -1.91227 -2.31154 -50
      vertex -2.18691 -2.05364 50
    endloop
  endfacet
  facet normal -0.587785 -0.809017 0
    outer loop
      vertex -1.60748 -2.53298 -50
      vertex -1.60748 -2.53298 50
      vertex -1.91227 -2.31154 50
    endloop
  endfacet
  facet normal -0.587785 -0.809017 0
    outer loop
      vertex -1.91227 -2.31154 -50
      vertex -1.60748 -2.53298 -50
      vertex -1.91227 -2.31154 50
    endloop
  endfacet
  facet normal -0.481754 -0.876307 0
    outer loop
      vertex -1.27734 -2.71448 -50
      vertex -1.27734 -2.71448 50
      vertex -1.60748 -2.53298 50
    endloop
  endfacet
  facet normal -0.481754 -0.876307 0
    outer loop
      vertex -1.60748 -2.53298 -50
      vertex -1.27734 -2.71448 -50
      vertex -1.60748 -2.53298 50
    endloop
  endfacet
  facet normal -0.368125 -0.929776 0
    outer loop
      vertex -0.927051 -2.85317 -50
      vertex -0.927051 -2.85317 50
      vertex -1.27734 -2.71448 50
    endloop
  endfacet
  facet normal -0.368125 -0.929776 0
    outer loop
      vertex -1.27734 -2.71448 -50
      vertex -0.927051 -2.85317 -50
      vertex -1.27734 -2.71448 50
    endloop
  endfacet
  facet normal -0.24869 -0.968583 0
    outer loop
      vertex -0.562144 -2.94686 -50
      vertex -0.562144 -2.94686 50
      vertex -0.927051 -2.85317 50
    endloop
  endfacet
  facet normal -0.24869 -0.968583 0
    outer loop
      vertex -0.927051 -2.85317 -50
      vertex -0.562144 -2.94686 -50
      vertex -0.927051 -2.85317 50
    endloop
  endfacet
  facet normal -0.125333 -0.992115 0
    outer loop
      vertex -0.188372 -2.99408 -50
      vertex -0.188372 -2.99408 50
      vertex -0.562144 -2.94686 50
    endloop
  endfacet
  facet normal -0.125333 -0.992115 0
    outer loop
      vertex -0.562144 -2.94686 -50
      vertex -0.188372 -2.99408 -50
      vertex -0.562144 -2.94686 50
    endloop
  endfacet
  facet normal 0 -1 0
    outer loop
      vertex 0.188372 -2.99408 -50
      vertex 0.188372 -2.99408 50
      vertex -0.188372 -2.99408 50
    endloop
  endfacet
  facet normal 0 -1 0
    outer loop
      vertex -0.188372 -2.99408 -50
      vertex 0.188372 -2.99408 -50
      vertex -0.188372 -2.99408 50
    endloop
  endfacet
  facet normal 0.125333 -0.992115 0
    outer loop
      vertex 0.562144 -2.94686 -50
      vertex 0.562144 -2.94686 50
      vertex 0.188372 -2.99408 50
    endloop
  endfacet
  facet normal 0.125333 -0.992115 0
    outer loop
      vertex 0.188372 -2.99408 -50
      vertex 0.562144 -2.94686 -50
      vertex 0.188372 -2.99408 50
    endloop
  endfacet
  facet normal 0.24869 -0.968583 0
    outer loop
      vertex 0.927051 -2.85317 -50
      vertex 0.927051 -2.85317 50
      vertex 0.562144 -2.94686 50
    endloop
  endfacet
  facet normal 0.24869 -0.968583 0
    outer loop
      vertex 0.562144 -2.94686 -50
      vertex 0.927051 -2.85317 -50
      vertex 0.562144 -2.94686 50
    endloop
  endfacet
  facet normal 0.368125 -0.929776 0
    outer loop
      vertex 1.27734 -2.71448 -50
      vertex 1.27734 -2.71448 50
      vertex 0.927051 -2.85317 50
    endloop
  endfacet
  facet normal 0.368125 -0.929776 0
    outer loop
      vertex 0.927051 -2.85317 -50
      vertex 1.27734 -2.71448 -50
      vertex 0.927051 -2.85317 50
    endloop
  endfacet
  facet normal 0.481754 -0.876307 0
    outer loop
      vertex 1.60748 -2.53298 -50
      vertex 1.60748 -2.53298 50
      vertex 1.27734 -2.71448 50
    endloop
  endfacet
  facet normal 0.481754 -0.876307 0
    outer loop
      vertex 1.27734 -2.71448 -50
      vertex 1.60748 -2.53298 -50
      vertex 1.27734 -2.71448 50
    endloop
  endfacet
  facet normal 0.587785 -0.809017 0
    outer loop
      vertex 1.91227 -2.31154 -50
      vertex 1.91227 -2.31154 50
      vertex 1.60748 -2.53298 50
    endloop
  endfacet
  facet normal 0.587785 -0.809017 0
    outer loop
      vertex 1.60748 -2.53298 -50
      vertex 1.91227 -2.31154 -50
      vertex 1.60748 -2.53298 50
    endloop
  endfacet
  facet normal 0.684547 -0.728969 0
    outer loop
      vertex 2.18691 -2.05364 -50
      vertex 2.18691 -2.05364 50
      vertex 1.91227 -2.31154 50
    endloop
  endfacet
  facet normal 0.684547 -0.728969 0
    outer loop
      vertex 1.91227 -2.31154 -50
      vertex 2.18691 -2.05364 -50
      vertex 1.91227 -2.31154 50
    endloop
  endfacet
  facet normal 0.770513 -0.637424 0
    outer loop
      vertex 2.42705 -1.76336 -50
      vertex 2.42705 -1.76336 50
      vertex 2.18691 -2.05364 50
    endloop
  endfacet
  facet normal 0.770513 -0.637424 0
    outer loop
      vertex 2.18691 -2.05364 -50
      vertex 2.42705 -1.76336 -50
      vertex 2.18691 -2.05364 50
    endloop
  endfacet
  facet normal 0.844328 -0.535827 0
    outer loop
      vertex 2.62892 -1.44526 -50
      vertex 2.62892 -1.44526 50
      vertex 2.42705 -1.76336 50
    endloop
  endfacet
  facet normal 0.844328 -0.535827 0
    outer loop
      vertex 2.42705 -1.76336 -50
      vertex 2.62892 -1.44526 -50
      vertex 2.42705 -1.76336 50
    endloop
  endfacet
  facet normal 0.904827 -0.425779 0
    outer loop
      vertex 2.78933 -1.10437 -50
      vertex 2.78933 -1.10437 50
      vertex 2.62892 -1.44526 50
    endloop
  endfacet
  facet normal 0.904827 -0.425779 0
    outer loop
      vertex 2.62892 -1.44526 -50
      vertex 2.78933 -1.10437 -50
      vertex 2.62892 -1.44526 50
    endloop
  endfacet
  facet normal 0.951057 -0.309017 0
    outer loop
      vertex 2.90575 -0.74607 -50
      vertex 2.90575 -0.74607 50
      vertex 2.78933 -1.10437 50
    endloop
  endfacet
  facet normal 0.951057 -0.309017 0
    outer loop
      vertex 2.78933 -1.10437 -50
      vertex 2.90575 -0.74607 -50
      vertex 2.78933 -1.10437 50
    endloop
  endfacet
  facet normal 0.982287 -0.187381 0
    outer loop
      vertex 2.97634 -0.376 -50
      vertex 2.97634 -0.376 50
      vertex 2.90575 -0.74607 50
    endloop
  endfacet
  facet normal 0.982287 -0.187381 0
    outer loop
      vertex 2.90575 -0.74607 -50
      vertex 2.97634 -0.376 -50
      vertex 2.90575 -0.74607 50
    endloop
  endfacet
  facet normal 0.998027 -0.0627905 0
    outer loop
      vertex 3 0 -50
      vertex 3 0 50
      vertex 2.97634 -0.376 50
    endloop
  endfacet
  facet normal 0.998027 -0.0627905 0
    outer loop
      vertex 2.97634 -0.376 -50
      vertex 3 0 -50
      vertex 2.97634 -0.376 50
    endloop
  endfacet
  facet normal -0 0 -1
    outer loop
      vertex 2.62892 -1.44526 -50
      vertex 2.42705 -1.76336 -50
      vertex 2.78933 -1.10437 -50
    endloop
  endfacet
  facet normal 0 0 -1
    outer loop
      vertex 1.60748 -2.53298 -50
      vertex 2.18691 -2.05364 -50
      vertex 1.91227 -2.31154 -50
    endloop
  endfacet
  facet normal -0 0 -1
    outer loop
      vertex 2.78933 -1.10437 -50
      vertex 2.42705 -1.76336 -50
      vertex 2.90575 -0.74607 -50
    endloop
  endfacet
  facet normal 0 0 -1
    outer loop
      vertex 2.42705 -1.76336 -50
      vertex 2.18691 -2.05364 -50
      vertex 1.60748 -2.53298 -50
    endloop
  endfacet
  facet normal -0 0 -1
    outer loop
      vertex 0.562144 -2.94686 -50
      vertex 0.188372 -2.99408 -50
      vertex 1.27734 -2.71448 -50
    endloop
  endfacet
  facet normal 0 0 -1
    outer loop
      vertex 0.188372 -2.99408 -50
      vertex 1.60748 -2.53298 -50
      vertex 1.27734 -2.71448 -50
    endloop
  endfacet
  facet normal 0 0 -1
    outer loop
      vertex 1.27734 -2.71448 -50
      vertex 0.927051 -2.85317 -50
      vertex 0.562144 -2.94686 -50
    endloop
  endfacet
  facet normal 0 0 -1
    outer loop
      vertex 2.42705 -1.76336 -50
      vertex 1.60748 -2.53298 -50
      vertex 0.188372 -2.99408 -50
    endloop
  endfacet
  facet normal -0 0 -1
    outer loop
      vertex 2.42705 -1.76336 -50
      vertex 0.188372 -2.99408 -50
      vertex 2.18691 2.05364 -50
    endloop
  endfacet
  facet normal 0 0 -1
    outer loop
      vertex -1.27734 -2.71448 -50
      vertex -0.188372 -2.99408 -50
      vertex -0.927051 -2.85317 -50
    endloop
  endfacet
  facet normal 0 0 -1
    outer loop
      vertex -0.188372 -2.99408 -50
      vertex -0.562144 -2.94686 -50
      vertex -0.927051 -2.85317 -50
    endloop
  endfacet
  facet normal 0 0 -1
    outer loop
      vertex -2.62892 -1.44526 -50
      vertex -0.188372 -2.99408 -50
      vertex -1.27734 -2.71448 -50
    endloop
  endfacet
  facet normal 0 0 -1
    outer loop
      vertex -2.18691 -2.05364 -50
      vertex -2.42705 -1.76336 -50
      vertex -2.62892 -1.44526 -50
    endloop
  endfacet
  facet normal 0 0 -1
    outer loop
      vertex -1.27734 -2.71448 -50
      vertex -1.60748 -2.53298 -50
      vertex -1.91227 -2.31154 -50
    endloop
  endfacet
  facet normal 0 0 -1
    outer loop
      vertex -2.18691 -2.05364 -50
      vertex -2.62892 -1.44526 -50
      vertex -1.91227 -2.31154 -50
    endloop
  endfacet
  facet normal 0 0 -1
    outer loop
      vertex -2.62892 -1.44526 -50
      vertex -1.27734 -2.71448 -50
      vertex -1.91227 -2.31154 -50
    endloop
  endfacet
  facet normal 0 0 -1
    outer loop
      vertex 0.188372 -2.99408 -50
      vertex -0.188372 -2.99408 -50
      vertex -2.62892 -1.44526 -50
    endloop
  endfacet
  facet normal 0 0 -1
    outer loop
      vertex 0.188372 -2.99408 -50
      vertex -2.62892 -1.44526 -50
      vertex -2.90575 0.74607 -50
    endloop
  endfacet
  facet normal 0 0 -1
    outer loop
      vertex -2.62892 -1.44526 -50
      vertex -2.90575 -0.74607 -50
      vertex -2.97634 -0.376 -50
    endloop
  endfacet
  facet normal 0 0 -1
    outer loop
      vertex -2.78933 -1.10437 -50
      vertex -2.90575 -0.74607 -50
      vertex -2.62892 -1.44526 -50
    endloop
  endfacet
  facet normal 0 0 -1
    outer loop
      vertex -2.62892 -1.44526 -50
      vertex -2.97634 -0.376 -50
      vertex -3 3.67394e-16 -50
    endloop
  endfacet
  facet normal 0 0 -1
    outer loop
      vertex -2.62892 -1.44526 -50
      vertex -3 3.67394e-16 -50
      vertex -2.90575 0.74607 -50
    endloop
  endfacet
  facet normal 0 0 -1
    outer loop
      vertex -3 3.67394e-16 -50
      vertex -2.97634 0.376 -50
      vertex -2.90575 0.74607 -50
    endloop
  endfacet
  facet normal 0 -0 -1
    outer loop
      vertex -0.188372 2.99408 -50
      vertex 0.562144 2.94686 -50
      vertex -1.27734 2.71448 -50
    endloop
  endfacet
  facet normal 0 0 -1
    outer loop
      vertex -2.90575 0.74607 -50
      vertex -2.78933 1.10437 -50
      vertex -2.42705 1.76336 -50
    endloop
  endfacet
  facet normal 0 0 -1
    outer loop
      vertex 0.562144 2.94686 -50
      vertex -2.42705 1.76336 -50
      vertex -1.27734 2.71448 -50
    endloop
  endfacet
  facet normal 0 -0 -1
    outer loop
      vertex -2.62892 1.44526 -50
      vertex -2.42705 1.76336 -50
      vertex -2.78933 1.10437 -50
    endloop
  endfacet
  facet normal 0 0 -1
    outer loop
      vertex -2.42705 1.76336 -50
      vertex -2.18691 2.05364 -50
      vertex -1.91227 2.31154 -50
    endloop
  endfacet
  facet normal 0 0 -1
    outer loop
      vertex -1.27734 2.71448 -50
      vertex -1.91227 2.31154 -50
      vertex -1.60748 2.53298 -50
    endloop
  endfacet
  facet normal 0 0 -1
    outer loop
      vertex -2.42705 1.76336 -50
      vertex -1.91227 2.31154 -50
      vertex -1.27734 2.71448 -50
    endloop
  endfacet
  facet normal 0 0 -1
    outer loop
      vertex 0.562144 2.94686 -50
      vertex -2.90575 0.74607 -50
      vertex -2.42705 1.76336 -50
    endloop
  endfacet
  facet normal 0 0 -1
    outer loop
      vertex -0.188372 2.99408 -50
      vertex -0.927051 2.85317 -50
      vertex -0.562144 2.94686 -50
    endloop
  endfacet
  facet normal 0 0 -1
    outer loop
      vertex -1.27734 2.71448 -50
      vertex -0.927051 2.85317 -50
      vertex -0.188372 2.99408 -50
    endloop
  endfacet
  facet normal 0 0 -1
    outer loop
      vertex 0.562144 2.94686 -50
      vertex -0.188372 2.99408 -50
      vertex 0.188372 2.99408 -50
    endloop
  endfacet
  facet normal 0 0 -1
    outer loop
      vertex 0.188372 -2.99408 -50
      vertex -2.90575 0.74607 -50
      vertex 0.562144 2.94686 -50
    endloop
  endfacet
  facet normal 0 0 -1
    outer loop
      vertex 0.188372 -2.99408 -50
      vertex 0.562144 2.94686 -50
      vertex 2.18691 2.05364 -50
    endloop
  endfacet
  facet normal 0 0 -1
    outer loop
      vertex 2.18691 2.05364 -50
      vertex 0.927051 2.85317 -50
      vertex 1.60748 2.53298 -50
    endloop
  endfacet
  facet normal 0 0 -1
    outer loop
      vertex 2.18691 2.05364 -50
      vertex 1.60748 2.53298 -50
      vertex 1.91227 2.31154 -50
    endloop
  endfacet
  facet normal -0 -0 -1
    outer loop
      vertex 1.27734 2.71448 -50
      vertex 1.60748 2.53298 -50
      vertex 0.927051 2.85317 -50
    endloop
  endfacet
  facet normal 0 0 -1
    outer loop
      vertex 0.562144 2.94686 -50
      vertex 0.927051 2.85317 -50
      vertex 2.18691 2.05364 -50
    endloop
  endfacet
  facet normal 0 0 -1
    outer loop
      vertex 2.42705 -1.76336 -50
      vertex 2.18691 2.05364 -50
      vertex 2.90575 -0.74607 -50
    endloop
  endfacet
  facet normal 0 0 -1
    outer loop
      vertex 2.90575 0.74607 -50
      vertex 2.62892 1.44526 -50
      vertex 2.78933 1.10437 -50
    endloop
  endfacet
  facet normal -0 -0 -1
    outer loop
      vertex 2.42705 1.76336 -50
      vertex 2.62892 1.44526 -50
      vertex 2.18691 2.05364 -50
    endloop
  endfacet
  facet normal 0 0 -1
    outer loop
      vertex 2.18691 2.05364 -50
      vertex 2.62892 1.44526 -50
      vertex 2.90575 0.74607 -50
    endloop
  endfacet
  facet normal 0 0 -1
    outer loop
      vertex 2.18691 2.05364 -50
      vertex 2.90575 0.74607 -50
      vertex 2.90575 -0.74607 -50
    endloop
  endfacet
  facet normal 0 0 -1
    outer loop
      vertex 2.90575 0.74607 -50
      vertex 2.97634 0.376 -50
      vertex 3 0 -50
    endloop
  endfacet
  facet normal 0 -0 -1
    outer loop
      vertex 2.90575 0.74607 -50
      vertex 3 0 -50
      vertex 2.90575 -0.74607 -50
    endloop
  endfacet
  facet normal 0 0 -1
    outer loop
      vertex 3 0 -50
      vertex 2.97634 -0.376 -50
      vertex 2.90575 -0.74607 -50
    endloop
  endfacet
  facet normal 0 0 1
    outer loop
      vertex 3 0 50
      vertex 2.97634 0.376 50
      vertex 2.90575 0.74607 50
    endloop
  endfacet
  facet normal 0 0 1
    outer loop
      vertex 2.62892 1.44526 50
      vertex 2.42705 1.76336 50
      vertex 2.18691 2.05364 50
    endloop
  endfacet
  facet normal 0 0 1
    outer loop
      vertex 2.78933 1.10437 50
      vertex 2.62892 1.44526 50
      vertex 2.90575 0.74607 50
    endloop
  endfacet
  facet normal 0 0 1
    outer loop
      vertex 2.62892 1.44526 50
      vertex 2.18691 2.05364 50
      vertex 2.90575 0.74607 50
    endloop
  endfacet
  facet normal 0 0 1
    outer loop
      vertex -2.62892 -1.44526 50
      vertex -0.188372 -2.99408 50
      vertex 0.188372 -2.99408 50
    endloop
  endfacet
  facet normal 0 0 1
    outer loop
      vertex 1.91227 2.31154 50
      vertex 1.60748 2.53298 50
      vertex 2.18691 2.05364 50
    endloop
  endfacet
  facet normal 0 0 1
    outer loop
      vertex 1.60748 2.53298 50
      vertex 0.927051 2.85317 50
      vertex 2.18691 2.05364 50
    endloop
  endfacet
  facet normal 0 0 1
    outer loop
      vertex 1.27734 2.71448 50
      vertex 0.927051 2.85317 50
      vertex 1.60748 2.53298 50
    endloop
  endfacet
  facet normal 0 0 1
    outer loop
      vertex 0.927051 2.85317 50
      vertex 0.562144 2.94686 50
      vertex 2.18691 2.05364 50
    endloop
  endfacet
  facet normal 0 0 1
    outer loop
      vertex 0.562144 2.94686 50
      vertex -1.27734 2.71448 50
      vertex -2.42705 1.76336 50
    endloop
  endfacet
  facet normal 0 0 1
    outer loop
      vertex 0.188372 2.99408 50
      vertex -0.188372 2.99408 50
      vertex 0.562144 2.94686 50
    endloop
  endfacet
  facet normal 0 0 1
    outer loop
      vertex -0.188372 2.99408 50
      vertex -0.927051 2.85317 50
      vertex -1.27734 2.71448 50
    endloop
  endfacet
  facet normal -0 0 1
    outer loop
      vertex -0.562144 2.94686 50
      vertex -0.927051 2.85317 50
      vertex -0.188372 2.99408 50
    endloop
  endfacet
  facet normal 0 0 1
    outer loop
      vertex -0.188372 2.99408 50
      vertex -1.27734 2.71448 50
      vertex 0.562144 2.94686 50
    endloop
  endfacet
  facet normal 0 0 1
    outer loop
      vertex -1.27734 2.71448 50
      vertex -1.91227 2.31154 50
      vertex -2.42705 1.76336 50
    endloop
  endfacet
  facet normal -0 0 1
    outer loop
      vertex -1.60748 2.53298 50
      vertex -1.91227 2.31154 50
      vertex -1.27734 2.71448 50
    endloop
  endfacet
  facet normal 0 0 1
    outer loop
      vertex -1.91227 2.31154 50
      vertex -2.18691 2.05364 50
      vertex -2.42705 1.76336 50
    endloop
  endfacet
  facet normal 0 0 1
    outer loop
      vertex 0.562144 2.94686 50
      vertex -2.42705 1.76336 50
      vertex -2.90575 0.74607 50
    endloop
  endfacet
  facet normal -0 -0 1
    outer loop
      vertex -1.27734 -2.71448 50
      vertex -0.188372 -2.99408 50
      vertex -2.62892 -1.44526 50
    endloop
  endfacet
  facet normal -0 0 1
    outer loop
      vertex -2.62892 1.44526 50
      vertex -2.78933 1.10437 50
      vertex -2.42705 1.76336 50
    endloop
  endfacet
  facet normal -0 0 1
    outer loop
      vertex -2.78933 1.10437 50
      vertex -2.90575 0.74607 50
      vertex -2.42705 1.76336 50
    endloop
  endfacet
  facet normal -0 -0 1
    outer loop
      vertex -2.62892 -1.44526 50
      vertex 0.188372 -2.99408 50
      vertex -2.90575 0.74607 50
    endloop
  endfacet
  facet normal -0 0 1
    outer loop
      vertex -2.97634 0.376 50
      vertex -3 3.67394e-16 50
      vertex -2.90575 0.74607 50
    endloop
  endfacet
  facet normal 0 0 1
    outer loop
      vertex -3 3.67394e-16 50
      vertex -2.97634 -0.376 50
      vertex -2.62892 -1.44526 50
    endloop
  endfacet
  facet normal 0 0 1
    outer loop
      vertex -2.97634 -0.376 50
      vertex -2.90575 -0.74607 50
      vertex -2.62892 -1.44526 50
    endloop
  endfacet
  facet normal 0 0 1
    outer loop
      vertex -2.90575 -0.74607 50
      vertex -2.78933 -1.10437 50
      vertex -2.62892 -1.44526 50
    endloop
  endfacet
  facet normal -0 0 1
    outer loop
      vertex -3 3.67394e-16 50
      vertex -2.62892 -1.44526 50
      vertex -2.90575 0.74607 50
    endloop
  endfacet
  facet normal 0 0 1
    outer loop
      vertex -2.62892 -1.44526 50
      vertex -1.91227 -2.31154 50
      vertex -1.27734 -2.71448 50
    endloop
  endfacet
  facet normal -0 -0 1
    outer loop
      vertex -2.42705 -1.76336 50
      vertex -2.18691 -2.05364 50
      vertex -2.62892 -1.44526 50
    endloop
  endfacet
  facet normal -0 -0 1
    outer loop
      vertex -2.18691 -2.05364 50
      vertex -1.91227 -2.31154 50
      vertex -2.62892 -1.44526 50
    endloop
  endfacet
  facet normal 0 0 1
    outer loop
      vertex -0.188372 -2.99408 50
      vertex -1.27734 -2.71448 50
      vertex -0.927051 -2.85317 50
    endloop
  endfacet
  facet normal -0 -0 1
    outer loop
      vertex -1.60748 -2.53298 50
      vertex -1.27734 -2.71448 50
      vertex -1.91227 -2.31154 50
    endloop
  endfacet
  facet normal 0 -0 1
    outer loop
      vertex 0.188372 -2.99408 50
      vertex 0.562144 2.94686 50
      vertex -2.90575 0.74607 50
    endloop
  endfacet
  facet normal 0 0 1
    outer loop
      vertex 2.18691 2.05364 50
      vertex 0.562144 2.94686 50
      vertex 0.188372 -2.99408 50
    endloop
  endfacet
  facet normal -0 -0 1
    outer loop
      vertex -0.562144 -2.94686 50
      vertex -0.188372 -2.99408 50
      vertex -0.927051 -2.85317 50
    endloop
  endfacet
  facet normal 0 0 1
    outer loop
      vertex 2.18691 2.05364 50
      vertex 0.188372 -2.99408 50
      vertex 2.42705 -1.76336 50
    endloop
  endfacet
  facet normal 0 0 1
    outer loop
      vertex 0.188372 -2.99408 50
      vertex 1.27734 -2.71448 50
      vertex 1.60748 -2.53298 50
    endloop
  endfacet
  facet normal 0 -0 1
    outer loop
      vertex 0.562144 -2.94686 50
      vertex 1.27734 -2.71448 50
      vertex 0.188372 -2.99408 50
    endloop
  endfacet
  facet normal 0 -0 1
    outer loop
      vertex 0.927051 -2.85317 50
      vertex 1.27734 -2.71448 50
      vertex 0.562144 -2.94686 50
    endloop
  endfacet
  facet normal 0 0 1
    outer loop
      vertex 2.42705 -1.76336 50
      vertex 1.60748 -2.53298 50
      vertex 2.18691 -2.05364 50
    endloop
  endfacet
  facet normal 0 0 1
    outer loop
      vertex 0.188372 -2.99408 50
      vertex 1.60748 -2.53298 50
      vertex 2.42705 -1.76336 50
    endloop
  endfacet
  facet normal 0 -0 1
    outer loop
      vertex 1.91227 -2.31154 50
      vertex 2.18691 -2.05364 50
      vertex 1.60748 -2.53298 50
    endloop
  endfacet
  facet normal 0 0 1
    outer loop
      vertex 2.18691 2.05364 50
      vertex 2.42705 -1.76336 50
      vertex 2.90575 -0.74607 50
    endloop
  endfacet
  facet normal 0 0 1
    outer loop
      vertex 2.18691 2.05364 50
      vertex 2.90575 -0.74607 50
      vertex 2.90575 0.74607 50
    endloop
  endfacet
  facet normal 0 -0 1
    outer loop
      vertex 2.62892 -1.44526 50
      vertex 2.78933 -1.10437 50
      vertex 2.42705 -1.76336 50
    endloop
  endfacet
  facet normal 0 -0 1
    outer loop
      vertex 2.78933 -1.10437 50
      vertex 2.90575 -0.74607 50
      vertex 2.42705 -1.76336 50
    endloop
  endfacet
  facet normal 0 0 1
    outer loop
      vertex 2.90575 -0.74607 50
      vertex 3 0 50
      vertex 2.90575 0.74607 50
    endloop
  endfacet
  facet normal 0 -0 1
    outer loop
      vertex 2.97634 -0.376 50
      vertex 3 0 50
      vertex 2.90575 -0.74607 50
    endloop
  endfacet
endsolid OpenSCAD_Model
