solid OpenSCAD_Model
  facet normal -1 0 -0
    outer loop
      vertex -5 -3 20
      vertex -5 5 0
      vertex -5 -5 0
    endloop
  endfacet
  facet normal -1 0 0
    outer loop
      vertex -5 -5 20
      vertex -5 -3 20
      vertex -5 -5 0
    endloop
  endfacet
  facet normal -1 0 0
    outer loop
      vertex -5 -3 35
      vertex -5 5 0
      vertex -5 -3 20
    endloop
  endfacet
  facet normal -1 0 0
    outer loop
      vertex -5 -5 35
      vertex -5 -5 55
      vertex -5 -3 35
    endloop
  endfacet
  facet normal -1 0 -0
    outer loop
      vertex -5 5 55
      vertex -5 5 0
      vertex -5 -3 35
    endloop
  endfacet
  facet normal -1 0 0
    outer loop
      vertex -5 -5 55
      vertex -5 5 55
      vertex -5 -3 35
    endloop
  endfacet
  facet normal 0 -1 0
    outer loop
      vertex -5 -5 20
      vertex -15 -5 35
      vertex -15 -5 20
    endloop
  endfacet
  facet normal 0 -1 0
    outer loop
      vertex -5 -5 20
      vertex -5 -5 0
      vertex 5 -5 0
    endloop
  endfacet
  facet normal 0 -1 0
    outer loop
      vertex -5 -5 20
      vertex 5 -5 0
      vertex 5 -5 20
    endloop
  endfacet
  facet normal 0 -1 0
    outer loop
      vertex -5 -5 20
      vertex -5 -5 35
      vertex -15 -5 35
    endloop
  endfacet
  facet normal 0 -1 0
    outer loop
      vertex 15 -5 20
      vertex 15 -5 35
      vertex 5 -5 35
    endloop
  endfacet
  facet normal 0 -1 0
    outer loop
      vertex 15 -5 20
      vertex 5 -5 35
      vertex 5 -5 20
    endloop
  endfacet
  facet normal 0 -1 0
    outer loop
      vertex 5 -5 20
      vertex -5 -5 35
      vertex -5 -5 20
    endloop
  endfacet
  facet normal -0 -1 -0
    outer loop
      vertex 5 -5 55
      vertex -5 -5 55
      vertex 5 -5 35
    endloop
  endfacet
  facet normal 0 -1 0
    outer loop
      vertex -5 -5 55
      vertex -5 -5 35
      vertex 5 -5 35
    endloop
  endfacet
  facet normal 0 -1 0
    outer loop
      vertex -5 -5 35
      vertex 5 -5 20
      vertex 5 -5 35
    endloop
  endfacet
  facet normal 0 0 -1
    outer loop
      vertex -5 5 0
      vertex -3 3.67394e-16 0
      vertex -5 -5 0
    endloop
  endfacet
  facet normal 0 -0 -1
    outer loop
      vertex -3 3.67394e-16 0
      vertex -2.42705 -1.76336 0
      vertex -5 -5 0
    endloop
  endfacet
  facet normal 0 -0 -1
    outer loop
      vertex 5 5 0
      vertex 5 -5 0
      vertex 3 0 0
    endloop
  endfacet
  facet normal 0 -0 -1
    outer loop
      vertex -2.42705 -1.76336 0
      vertex -0.927051 -2.85317 0
      vertex -5 -5 0
    endloop
  endfacet
  facet normal 0 -0 -1
    outer loop
      vertex 0.927051 -2.85317 0
      vertex 5 -5 0
      vertex -5 -5 0
    endloop
  endfacet
  facet normal -0 0 -1
    outer loop
      vertex 0.927051 -2.85317 0
      vertex -5 -5 0
      vertex -0.927051 -2.85317 0
    endloop
  endfacet
  facet normal 0 0 -1
    outer loop
      vertex 5 -5 0
      vertex 2.42705 -1.76336 0
      vertex 3 0 0
    endloop
  endfacet
  facet normal 0 -0 -1
    outer loop
      vertex 2.42705 -1.76336 0
      vertex 5 -5 0
      vertex 0.927051 -2.85317 0
    endloop
  endfacet
  facet normal 0 0 -1
    outer loop
      vertex 5 5 0
      vertex 3 0 0
      vertex 2.42705 1.76336 0
    endloop
  endfacet
  facet normal 0 0 -1
    outer loop
      vertex 5 5 0
      vertex 2.42705 1.76336 0
      vertex 0.927051 2.85317 0
    endloop
  endfacet
  facet normal -0 0 -1
    outer loop
      vertex 5 5 0
      vertex -0.927051 2.85317 0
      vertex -5 5 0
    endloop
  endfacet
  facet normal 0 0 -1
    outer loop
      vertex 0.927051 2.85317 0
      vertex -0.927051 2.85317 0
      vertex 5 5 0
    endloop
  endfacet
  facet normal -0 0 -1
    outer loop
      vertex -0.927051 2.85317 0
      vertex -2.42705 1.76336 0
      vertex -5 5 0
    endloop
  endfacet
  facet normal -0 0 -1
    outer loop
      vertex -2.42705 1.76336 0
      vertex -3 3.67394e-16 0
      vertex -5 5 0
    endloop
  endfacet
  facet normal 0 1 0
    outer loop
      vertex -5 5 55
      vertex 5 5 0
      vertex -5 5 0
    endloop
  endfacet
  facet normal -0 1 0
    outer loop
      vertex -5 5 55
      vertex 5 5 55
      vertex 5 5 0
    endloop
  endfacet
  facet normal 0 0 1
    outer loop
      vertex 5 -5 55
      vertex -5 5 55
      vertex -5 -5 55
    endloop
  endfacet
  facet normal 0 -0 1
    outer loop
      vertex 5 -5 55
      vertex 5 5 55
      vertex -5 5 55
    endloop
  endfacet
  facet normal 1 0 0
    outer loop
      vertex 5 -3 20
      vertex 5 -5 20
      vertex 5 -5 0
    endloop
  endfacet
  facet normal 1 0 0
    outer loop
      vertex 5 5 55
      vertex 5 -5 55
      vertex 5 -3 35
    endloop
  endfacet
  facet normal 1 0 0
    outer loop
      vertex 5 -5 55
      vertex 5 -5 35
      vertex 5 -3 35
    endloop
  endfacet
  facet normal 1 0 0
    outer loop
      vertex 5 5 55
      vertex 5 -3 35
      vertex 5 5 0
    endloop
  endfacet
  facet normal 1 0 0
    outer loop
      vertex 5 -3 35
      vertex 5 -3 20
      vertex 5 5 0
    endloop
  endfacet
  facet normal 1 0 0
    outer loop
      vertex 5 -3 20
      vertex 5 -5 0
      vertex 5 5 0
    endloop
  endfacet
  facet normal 0.951057 0.309017 -0
    outer loop
      vertex -3 3.67394e-16 0
      vertex -3 3.67394e-16 49
      vertex -2.42705 -1.76336 49
    endloop
  endfacet
  facet normal 0.951057 0.309017 -0
    outer loop
      vertex -2.42705 -1.76336 0
      vertex -3 3.67394e-16 0
      vertex -2.42705 -1.76336 49
    endloop
  endfacet
  facet normal -0.587785 0.809017 0
    outer loop
      vertex 2.42705 -1.76336 0
      vertex 0.927051 -2.85317 49
      vertex 2.42705 -1.76336 49
    endloop
  endfacet
  facet normal -0.587785 0.809017 0
    outer loop
      vertex 2.42705 -1.76336 0
      vertex 0.927051 -2.85317 0
      vertex 0.927051 -2.85317 49
    endloop
  endfacet
  facet normal 0.587785 0.809017 -0
    outer loop
      vertex -0.927051 -2.85317 0
      vertex -2.42705 -1.76336 49
      vertex -0.927051 -2.85317 49
    endloop
  endfacet
  facet normal 0.587785 0.809017 0
    outer loop
      vertex -0.927051 -2.85317 0
      vertex -2.42705 -1.76336 0
      vertex -2.42705 -1.76336 49
    endloop
  endfacet
  facet normal 0.951057 -0.309017 0
    outer loop
      vertex -3 3.67394e-16 49
      vertex -2.42705 1.76336 0
      vertex -2.42705 1.76336 49
    endloop
  endfacet
  facet normal 0.951057 -0.309017 0
    outer loop
      vertex -3 3.67394e-16 49
      vertex -3 3.67394e-16 0
      vertex -2.42705 1.76336 0
    endloop
  endfacet
  facet normal -0.951057 -0.309017 0
    outer loop
      vertex 2.42705 1.76336 0
      vertex 3 0 0
      vertex 3 0 49
    endloop
  endfacet
  facet normal -0.951057 -0.309017 -0
    outer loop
      vertex 2.42705 1.76336 49
      vertex 2.42705 1.76336 0
      vertex 3 0 49
    endloop
  endfacet
  facet normal 2.39517e-16 1 -0
    outer loop
      vertex 0.927051 -2.85317 0
      vertex -0.927051 -2.85317 49
      vertex 0.927051 -2.85317 49
    endloop
  endfacet
  facet normal 2.39517e-16 1 0
    outer loop
      vertex 0.927051 -2.85317 0
      vertex -0.927051 -2.85317 0
      vertex -0.927051 -2.85317 49
    endloop
  endfacet
  facet normal -0.951057 0.309017 0
    outer loop
      vertex 3 0 0
      vertex 2.42705 -1.76336 49
      vertex 3 0 49
    endloop
  endfacet
  facet normal -0.951057 0.309017 0
    outer loop
      vertex 3 0 0
      vertex 2.42705 -1.76336 0
      vertex 2.42705 -1.76336 49
    endloop
  endfacet
  facet normal -2.39517e-16 -1 0
    outer loop
      vertex -0.927051 2.85317 49
      vertex 0.927051 2.85317 0
      vertex 0.927051 2.85317 49
    endloop
  endfacet
  facet normal -2.39517e-16 -1 -0
    outer loop
      vertex -0.927051 2.85317 49
      vertex -0.927051 2.85317 0
      vertex 0.927051 2.85317 0
    endloop
  endfacet
  facet normal -0.587785 -0.809017 0
    outer loop
      vertex 0.927051 2.85317 49
      vertex 2.42705 1.76336 0
      vertex 2.42705 1.76336 49
    endloop
  endfacet
  facet normal -0.587785 -0.809017 -0
    outer loop
      vertex 0.927051 2.85317 49
      vertex 0.927051 2.85317 0
      vertex 2.42705 1.76336 0
    endloop
  endfacet
  facet normal 0.587785 -0.809017 0
    outer loop
      vertex -2.42705 1.76336 49
      vertex -0.927051 2.85317 0
      vertex -0.927051 2.85317 49
    endloop
  endfacet
  facet normal 0.587785 -0.809017 0
    outer loop
      vertex -2.42705 1.76336 49
      vertex -2.42705 1.76336 0
      vertex -0.927051 2.85317 0
    endloop
  endfacet
  facet normal -0 0 -1
    outer loop
      vertex 0.927051 2.85317 49
      vertex -2.42705 1.76336 49
      vertex -0.927051 2.85317 49
    endloop
  endfacet
  facet normal 0 -0 -1
    outer loop
      vertex 0.927051 2.85317 49
      vertex 2.42705 -1.76336 49
      vertex -2.42705 1.76336 49
    endloop
  endfacet
  facet normal -0 -0 -1
    outer loop
      vertex 2.42705 1.76336 49
      vertex 3 0 49
      vertex 0.927051 2.85317 49
    endloop
  endfacet
  facet normal -0 0 -1
    outer loop
      vertex 3 0 49
      vertex 2.42705 -1.76336 49
      vertex 0.927051 2.85317 49
    endloop
  endfacet
  facet normal -0 0 -1
    outer loop
      vertex 2.42705 -1.76336 49
      vertex -0.927051 -2.85317 49
      vertex -2.42705 1.76336 49
    endloop
  endfacet
  facet normal 0 0 -1
    outer loop
      vertex 0.927051 -2.85317 49
      vertex -0.927051 -2.85317 49
      vertex 2.42705 -1.76336 49
    endloop
  endfacet
  facet normal 0 0 -1
    outer loop
      vertex -0.927051 -2.85317 49
      vertex -2.42705 -1.76336 49
      vertex -2.42705 1.76336 49
    endloop
  endfacet
  facet normal 0 0 -1
    outer loop
      vertex -2.42705 -1.76336 49
      vertex -3 3.67394e-16 49
      vertex -2.42705 1.76336 49
    endloop
  endfacet
  facet normal -1 0 0
    outer loop
      vertex -15 -5 35
      vertex -15 -3 20
      vertex -15 -5 20
    endloop
  endfacet
  facet normal -1 0 0
    outer loop
      vertex -15 -5 35
      vertex -15 -3 35
      vertex -15 -3 20
    endloop
  endfacet
  facet normal 0 0 -1
    outer loop
      vertex -15 -3 20
      vertex -5 -5 20
      vertex -15 -5 20
    endloop
  endfacet
  facet normal 0 0 -1
    outer loop
      vertex -15 -3 20
      vertex -5 -3 20
      vertex -5 -5 20
    endloop
  endfacet
  facet normal 0 0 -1
    outer loop
      vertex 5 -3 20
      vertex 15 -5 20
      vertex 5 -5 20
    endloop
  endfacet
  facet normal 0 0 -1
    outer loop
      vertex 5 -3 20
      vertex 15 -3 20
      vertex 15 -5 20
    endloop
  endfacet
  facet normal 0 1 0
    outer loop
      vertex -15 -3 35
      vertex -5 -3 20
      vertex -15 -3 20
    endloop
  endfacet
  facet normal -0 1 0
    outer loop
      vertex -15 -3 35
      vertex -5 -3 35
      vertex -5 -3 20
    endloop
  endfacet
  facet normal 0 1 0
    outer loop
      vertex 5 -3 35
      vertex 15 -3 20
      vertex 5 -3 20
    endloop
  endfacet
  facet normal -0 1 0
    outer loop
      vertex 5 -3 35
      vertex 15 -3 35
      vertex 15 -3 20
    endloop
  endfacet
  facet normal 0 0 1
    outer loop
      vertex -5 -5 35
      vertex -15 -3 35
      vertex -15 -5 35
    endloop
  endfacet
  facet normal 0 -0 1
    outer loop
      vertex -5 -5 35
      vertex -5 -3 35
      vertex -15 -3 35
    endloop
  endfacet
  facet normal 0 0 1
    outer loop
      vertex 15 -5 35
      vertex 5 -3 35
      vertex 5 -5 35
    endloop
  endfacet
  facet normal 0 -0 1
    outer loop
      vertex 15 -5 35
      vertex 15 -3 35
      vertex 5 -3 35
    endloop
  endfacet
  facet normal 1 0 0
    outer loop
      vertex 15 -3 20
      vertex 15 -5 35
      vertex 15 -5 20
    endloop
  endfacet
  facet normal 1 0 -0
    outer loop
      vertex 15 -3 20
      vertex 15 -3 35
      vertex 15 -5 35
    endloop
  endfacet
endsolid OpenSCAD_Model
