solid OpenSCAD_Model
  facet normal -1 0 0
    outer loop
      vertex -7 -7 55
      vertex -7 7 0
      vertex -7 -7 0
    endloop
  endfacet
  facet normal -1 0 0
    outer loop
      vertex -7 -7 55
      vertex -7 7 55
      vertex -7 7 0
    endloop
  endfacet
  facet normal 0 -1 0
    outer loop
      vertex 7 -7 0
      vertex -7 -7 55
      vertex -7 -7 0
    endloop
  endfacet
  facet normal 0 -1 0
    outer loop
      vertex 7 -7 0
      vertex 7 -7 55
      vertex -7 -7 55
    endloop
  endfacet
  facet normal 0 0 -1
    outer loop
      vertex -7 7 0
      vertex 7 -7 0
      vertex -7 -7 0
    endloop
  endfacet
  facet normal 0 0 -1
    outer loop
      vertex -7 7 0
      vertex 7 7 0
      vertex 7 -7 0
    endloop
  endfacet
  facet normal 0 1 0
    outer loop
      vertex -7 7 55
      vertex 7 7 0
      vertex -7 7 0
    endloop
  endfacet
  facet normal -0 1 0
    outer loop
      vertex -7 7 55
      vertex 7 7 55
      vertex 7 7 0
    endloop
  endfacet
  facet normal 0 0 1
    outer loop
      vertex 7 7 55
      vertex -7 7 55
      vertex 3.06162e-16 5 55
    endloop
  endfacet
  facet normal 0 0 1
    outer loop
      vertex -5 6.12323e-16 55
      vertex -7 7 55
      vertex -7 -7 55
    endloop
  endfacet
  facet normal 0 0 1
    outer loop
      vertex -5 6.12323e-16 55
      vertex -7 -7 55
      vertex -4.6194 -1.91342 55
    endloop
  endfacet
  facet normal 0 0 1
    outer loop
      vertex -4.6194 1.91342 55
      vertex -7 7 55
      vertex -5 6.12323e-16 55
    endloop
  endfacet
  facet normal 0 0 1
    outer loop
      vertex -3.53553 3.53553 55
      vertex -7 7 55
      vertex -4.6194 1.91342 55
    endloop
  endfacet
  facet normal 0 0 1
    outer loop
      vertex -7 7 55
      vertex -1.91342 4.6194 55
      vertex 3.06162e-16 5 55
    endloop
  endfacet
  facet normal 0 0 1
    outer loop
      vertex -1.91342 4.6194 55
      vertex -7 7 55
      vertex -3.53553 3.53553 55
    endloop
  endfacet
  facet normal 0 0 1
    outer loop
      vertex 7 7 55
      vertex 3.06162e-16 5 55
      vertex 1.91342 4.6194 55
    endloop
  endfacet
  facet normal 0 0 1
    outer loop
      vertex 7 7 55
      vertex 1.91342 4.6194 55
      vertex 3.53553 3.53553 55
    endloop
  endfacet
  facet normal 0 0 1
    outer loop
      vertex 7 7 55
      vertex 3.53553 3.53553 55
      vertex 4.6194 1.91342 55
    endloop
  endfacet
  facet normal 0 0 1
    outer loop
      vertex 7 7 55
      vertex 5 0 55
      vertex 7 -7 55
    endloop
  endfacet
  facet normal -0 0 1
    outer loop
      vertex 4.6194 1.91342 55
      vertex 5 0 55
      vertex 7 7 55
    endloop
  endfacet
  facet normal 0 0 1
    outer loop
      vertex 5 0 55
      vertex 4.6194 -1.91342 55
      vertex 7 -7 55
    endloop
  endfacet
  facet normal 0 0 1
    outer loop
      vertex 4.6194 -1.91342 55
      vertex 3.53553 -3.53553 55
      vertex 7 -7 55
    endloop
  endfacet
  facet normal 0 0 1
    outer loop
      vertex -4.6194 -1.91342 55
      vertex -7 -7 55
      vertex -3.53553 -3.53553 55
    endloop
  endfacet
  facet normal 0 0 1
    outer loop
      vertex 3.53553 -3.53553 55
      vertex 1.91342 -4.6194 55
      vertex 7 -7 55
    endloop
  endfacet
  facet normal 0 0 1
    outer loop
      vertex -9.18485e-16 -5 55
      vertex -7 -7 55
      vertex 7 -7 55
    endloop
  endfacet
  facet normal -0 0 1
    outer loop
      vertex -9.18485e-16 -5 55
      vertex 7 -7 55
      vertex 1.91342 -4.6194 55
    endloop
  endfacet
  facet normal 0 0 1
    outer loop
      vertex -1.91342 -4.6194 55
      vertex -7 -7 55
      vertex -9.18485e-16 -5 55
    endloop
  endfacet
  facet normal 0 0 1
    outer loop
      vertex -3.53553 -3.53553 55
      vertex -7 -7 55
      vertex -1.91342 -4.6194 55
    endloop
  endfacet
  facet normal 1 0 0
    outer loop
      vertex 7 7 0
      vertex 7 -7 55
      vertex 7 -7 0
    endloop
  endfacet
  facet normal 1 0 -0
    outer loop
      vertex 7 7 0
      vertex 7 7 55
      vertex 7 -7 55
    endloop
  endfacet
  facet normal 0.980785 0.19509 -0
    outer loop
      vertex -5 6.12323e-16 5
      vertex -5 6.12323e-16 55
      vertex -4.6194 -1.91342 55
    endloop
  endfacet
  facet normal 0.980785 0.19509 -0
    outer loop
      vertex -4.6194 -1.91342 5
      vertex -5 6.12323e-16 5
      vertex -4.6194 -1.91342 55
    endloop
  endfacet
  facet normal 0 0 1
    outer loop
      vertex -1.91342 -4.6194 5
      vertex -4.6194 -1.91342 5
      vertex -3.53553 -3.53553 5
    endloop
  endfacet
  facet normal 0 0 1
    outer loop
      vertex -1.91342 -4.6194 5
      vertex -3.53553 3.53553 5
      vertex -4.6194 -1.91342 5
    endloop
  endfacet
  facet normal 0 -0 1
    outer loop
      vertex -9.18485e-16 -5 5
      vertex 1.91342 -4.6194 5
      vertex -1.91342 -4.6194 5
    endloop
  endfacet
  facet normal 0 -0 1
    outer loop
      vertex 1.91342 -4.6194 5
      vertex 4.6194 -1.91342 5
      vertex -1.91342 -4.6194 5
    endloop
  endfacet
  facet normal 0 -0 1
    outer loop
      vertex 3.53553 -3.53553 5
      vertex 4.6194 -1.91342 5
      vertex 1.91342 -4.6194 5
    endloop
  endfacet
  facet normal 0 0 1
    outer loop
      vertex 4.6194 -1.91342 5
      vertex 3.53553 3.53553 5
      vertex -1.91342 -4.6194 5
    endloop
  endfacet
  facet normal 0 0 1
    outer loop
      vertex 5 0 5
      vertex 3.53553 3.53553 5
      vertex 4.6194 -1.91342 5
    endloop
  endfacet
  facet normal 0 0 1
    outer loop
      vertex 4.6194 1.91342 5
      vertex 3.53553 3.53553 5
      vertex 5 0 5
    endloop
  endfacet
  facet normal 0 0 1
    outer loop
      vertex 3.53553 3.53553 5
      vertex -3.53553 3.53553 5
      vertex -1.91342 -4.6194 5
    endloop
  endfacet
  facet normal 0 0 1
    outer loop
      vertex 1.91342 4.6194 5
      vertex 3.06162e-16 5 5
      vertex 3.53553 3.53553 5
    endloop
  endfacet
  facet normal 0 0 1
    outer loop
      vertex 3.06162e-16 5 5
      vertex -3.53553 3.53553 5
      vertex 3.53553 3.53553 5
    endloop
  endfacet
  facet normal -0 0 1
    outer loop
      vertex -1.91342 4.6194 5
      vertex -3.53553 3.53553 5
      vertex 3.06162e-16 5 5
    endloop
  endfacet
  facet normal 0 0 1
    outer loop
      vertex -3.53553 3.53553 5
      vertex -5 6.12323e-16 5
      vertex -4.6194 -1.91342 5
    endloop
  endfacet
  facet normal -0 0 1
    outer loop
      vertex -4.6194 1.91342 5
      vertex -5 6.12323e-16 5
      vertex -3.53553 3.53553 5
    endloop
  endfacet
  facet normal 0.19509 -0.980785 0
    outer loop
      vertex -1.91342 4.6194 55
      vertex 3.06162e-16 5 5
      vertex 3.06162e-16 5 55
    endloop
  endfacet
  facet normal 0.19509 -0.980785 0
    outer loop
      vertex -1.91342 4.6194 55
      vertex -1.91342 4.6194 5
      vertex 3.06162e-16 5 5
    endloop
  endfacet
  facet normal 0.980785 -0.19509 0
    outer loop
      vertex -5 6.12323e-16 55
      vertex -4.6194 1.91342 5
      vertex -4.6194 1.91342 55
    endloop
  endfacet
  facet normal 0.980785 -0.19509 0
    outer loop
      vertex -5 6.12323e-16 55
      vertex -5 6.12323e-16 5
      vertex -4.6194 1.91342 5
    endloop
  endfacet
  facet normal -0.55557 0.83147 0
    outer loop
      vertex 3.53553 -3.53553 5
      vertex 1.91342 -4.6194 55
      vertex 3.53553 -3.53553 55
    endloop
  endfacet
  facet normal -0.55557 0.83147 0
    outer loop
      vertex 3.53553 -3.53553 5
      vertex 1.91342 -4.6194 5
      vertex 1.91342 -4.6194 55
    endloop
  endfacet
  facet normal 0.19509 0.980785 -0
    outer loop
      vertex -9.18485e-16 -5 5
      vertex -1.91342 -4.6194 55
      vertex -9.18485e-16 -5 55
    endloop
  endfacet
  facet normal 0.19509 0.980785 0
    outer loop
      vertex -9.18485e-16 -5 5
      vertex -1.91342 -4.6194 5
      vertex -1.91342 -4.6194 55
    endloop
  endfacet
  facet normal -0.19509 0.980785 0
    outer loop
      vertex 1.91342 -4.6194 5
      vertex -9.18485e-16 -5 55
      vertex 1.91342 -4.6194 55
    endloop
  endfacet
  facet normal -0.19509 0.980785 0
    outer loop
      vertex 1.91342 -4.6194 5
      vertex -9.18485e-16 -5 5
      vertex -9.18485e-16 -5 55
    endloop
  endfacet
  facet normal 0.83147 0.55557 -0
    outer loop
      vertex -4.6194 -1.91342 5
      vertex -4.6194 -1.91342 55
      vertex -3.53553 -3.53553 55
    endloop
  endfacet
  facet normal 0.83147 0.55557 -0
    outer loop
      vertex -3.53553 -3.53553 5
      vertex -4.6194 -1.91342 5
      vertex -3.53553 -3.53553 55
    endloop
  endfacet
  facet normal -0.980785 -0.19509 0
    outer loop
      vertex 4.6194 1.91342 5
      vertex 5 0 5
      vertex 5 0 55
    endloop
  endfacet
  facet normal -0.980785 -0.19509 -0
    outer loop
      vertex 4.6194 1.91342 55
      vertex 4.6194 1.91342 5
      vertex 5 0 55
    endloop
  endfacet
  facet normal -0.55557 -0.83147 0
    outer loop
      vertex 1.91342 4.6194 55
      vertex 3.53553 3.53553 5
      vertex 3.53553 3.53553 55
    endloop
  endfacet
  facet normal -0.55557 -0.83147 -0
    outer loop
      vertex 1.91342 4.6194 55
      vertex 1.91342 4.6194 5
      vertex 3.53553 3.53553 5
    endloop
  endfacet
  facet normal -0.83147 -0.55557 0
    outer loop
      vertex 3.53553 3.53553 5
      vertex 4.6194 1.91342 5
      vertex 4.6194 1.91342 55
    endloop
  endfacet
  facet normal -0.83147 -0.55557 -0
    outer loop
      vertex 3.53553 3.53553 55
      vertex 3.53553 3.53553 5
      vertex 4.6194 1.91342 55
    endloop
  endfacet
  facet normal -0.19509 -0.980785 0
    outer loop
      vertex 3.06162e-16 5 55
      vertex 1.91342 4.6194 5
      vertex 1.91342 4.6194 55
    endloop
  endfacet
  facet normal -0.19509 -0.980785 -0
    outer loop
      vertex 3.06162e-16 5 55
      vertex 3.06162e-16 5 5
      vertex 1.91342 4.6194 5
    endloop
  endfacet
  facet normal 0.55557 0.83147 -0
    outer loop
      vertex -1.91342 -4.6194 5
      vertex -3.53553 -3.53553 55
      vertex -1.91342 -4.6194 55
    endloop
  endfacet
  facet normal 0.55557 0.83147 0
    outer loop
      vertex -1.91342 -4.6194 5
      vertex -3.53553 -3.53553 5
      vertex -3.53553 -3.53553 55
    endloop
  endfacet
  facet normal -0.980785 0.19509 0
    outer loop
      vertex 5 0 5
      vertex 4.6194 -1.91342 55
      vertex 5 0 55
    endloop
  endfacet
  facet normal -0.980785 0.19509 0
    outer loop
      vertex 5 0 5
      vertex 4.6194 -1.91342 5
      vertex 4.6194 -1.91342 55
    endloop
  endfacet
  facet normal 0.83147 -0.55557 0
    outer loop
      vertex -4.6194 1.91342 55
      vertex -3.53553 3.53553 5
      vertex -3.53553 3.53553 55
    endloop
  endfacet
  facet normal 0.83147 -0.55557 0
    outer loop
      vertex -4.6194 1.91342 55
      vertex -4.6194 1.91342 5
      vertex -3.53553 3.53553 5
    endloop
  endfacet
  facet normal 0.55557 -0.83147 0
    outer loop
      vertex -3.53553 3.53553 55
      vertex -1.91342 4.6194 5
      vertex -1.91342 4.6194 55
    endloop
  endfacet
  facet normal 0.55557 -0.83147 0
    outer loop
      vertex -3.53553 3.53553 55
      vertex -3.53553 3.53553 5
      vertex -1.91342 4.6194 5
    endloop
  endfacet
  facet normal -0.83147 0.55557 0
    outer loop
      vertex 4.6194 -1.91342 5
      vertex 3.53553 -3.53553 55
      vertex 4.6194 -1.91342 55
    endloop
  endfacet
  facet normal -0.83147 0.55557 0
    outer loop
      vertex 4.6194 -1.91342 5
      vertex 3.53553 -3.53553 5
      vertex 3.53553 -3.53553 55
    endloop
  endfacet
endsolid OpenSCAD_Model
